HIERARCHY
ROOT Hips
{
	OFFSET 0.00000 0.00000 0.00000
	CHANNELS 6 Xposition Yposition Zposition Yrotation Zrotation Xrotation 
	JOINT Lumbar
	{
		OFFSET 0 0 0
		CHANNELS 3 Zrotation Xrotation Yrotation
		JOINT Neck
		{
			OFFSET 0.00 0.2701 0.00
			CHANNELS 3 Zrotation Xrotation Yrotation
			End Site
			{
				OFFSET 0.00 0.1379 0.00
			}
		}
		JOINT RightShoulder
		{
			OFFSET 0.0119 0.2289 0.1181
			CHANNELS 3 Zrotation Xrotation Yrotation
			JOINT RightElbow
			{
				OFFSET 0.00 -0.1475 0.00
				CHANNELS 2 Zrotation Yrotation
				JOINT RightWrist
				{
					OFFSET 0.00 -0.1605 0.00
					CHANNELS 2 Zrotation Xrotation
					End Site
					{
						OFFSET 0.0040 -0.1068 0.0006
					}
				}
			}
		}
		JOINT LeftShoulder
		{
			OFFSET 0.0119 0.2289 -0.1181
			CHANNELS 3 Zrotation Xrotation Yrotation
			JOINT LeftElbow
			{
				OFFSET 0.00 -0.1475 0.00
				CHANNELS 2 Zrotation Yrotation
				JOINT LeftWrist
				{
					OFFSET 0.00 -0.1605 0.00
					CHANNELS 2 Zrotation Xrotation
					End Site
					{
						OFFSET 0.0040 -0.1068 -0.0006
					}
				}
			}
		}
	}
	JOINT RightHip
	{
		OFFSET 0.0316 -0.0424 0.0458
		CHANNELS 3 Zrotation Xrotation Yrotation
		JOINT RightKnee
		{
			OFFSET 0.00 -0.2438 0.00
			CHANNELS 1 Zrotation
			JOINT RightAnkle
			{
				OFFSET 0.00 -0.2449 0.00
				CHANNELS 3 Zrotation Xrotation Yrotation
				End Site
				{
					OFFSET 0.1237 -0.0542 0.0051
				}
			}
		}
	}
	JOINT LeftHip
	{
		OFFSET 0.0316 -0.0424 -0.0458
		CHANNELS 3 Zrotation Xrotation Yrotation
		JOINT LeftKnee
		{
			OFFSET 0.00 -0.2438 0.00
			CHANNELS 1 Zrotation
			JOINT LeftAnkle
			{
				OFFSET 0.00 -0.2449 0.00
				CHANNELS 3 Zrotation Xrotation Yrotation
				End Site
				{
					OFFSET 0.1237 -0.0542 -0.0051
				}
			}
		}
	}
}
MOTION
Frames: 23
Frame Time: 0.02
-0.26456 0.56644 -0.29732 188.77205 0 -3.72337 -25.90693 8.77059 3.88961 1.58919 6.98598 5.56567 9.75865 -17.63154 60.5179 86.28397 87.20753 -22.19438 -4.59298 15.923 25.45246 -3.52806 54.37984 -92.54244 -40.21094 4.71773 12.3611 4.71424 0.87565 -26.17441 5.90929 -2.58903 -0.50635 14.38163 6.61511 -8.91287 -23.18829 6.87547 5.08844 5.78237
-0.26554 0.56664 -0.30109 188.93211 0 -3.68454 -25.99085 8.71309 3.74057 1.90542 7.10602 5.31222 9.37866 -17.74056 60.54085 86.30295 87.01902 -21.90976 -4.56543 16.78356 26.12899 -4.35211 54.75161 -92.35012 -40.10654 4.70502 12.0532 5.01638 0.7552 -25.72253 5.92023 -2.58609 -0.55891 14.0841 6.94905 -9.03239 -22.63422 6.72101 5.04397 5.72479
-0.26658 0.56681 -0.30467 189.0534 0 -3.62512 -26.03328 8.63975 3.56309 2.25244 7.27555 5.03656 8.94316 -17.88662 60.56508 86.34968 86.70719 -21.54768 -4.51856 17.75728 26.91541 -5.2658 54.95229 -92.04628 -39.96842 4.68376 11.76043 5.2888 0.64979 -25.30389 5.95266 -2.56046 -0.59763 13.76578 7.27533 -9.02358 -22.05869 6.58887 4.9947 5.62245
-0.2676 0.56701 -0.30832 189.20597 0 -3.57641 -26.09451 8.58376 3.38593 2.59759 7.41062 4.76158 8.52371 -17.99584 60.58776 86.36486 86.46636 -21.22396 -4.48424 18.7531 27.70751 -6.1751 55.22619 -91.78074 -39.85499 4.66445 11.45844 5.57433 0.53269 -24.86703 5.96692 -2.54999 -0.65007 13.45649 7.60327 -9.07916 -21.48538 6.43795 4.94457 5.53831
-0.2686 0.56717 -0.31204 189.29845 0 -3.52228 -26.15338 8.48395 3.26314 2.89027 7.59705 4.52703 8.14212 -18.19178 60.61501 86.46302 86.16294 -20.88588 -4.43438 19.4262 28.27294 -6.91748 55.53333 -91.57052 -39.70613 4.6535 11.16635 5.86356 0.4402 -24.44369 6.0154 -2.5206 -0.67335 13.14724 7.94075 -9.11079 -20.94134 6.32335 4.907 5.46269
-0.26965 0.56739 -0.31556 189.50873 0 -3.47406 -26.208 8.47221 3.01893 3.29767 7.68826 4.20155 7.67169 -18.21456 60.63295 86.39321 85.96008 -20.5583 -4.41197 20.81751 29.32564 -8.04337 55.71327 -91.21638 -39.61812 4.62308 10.85647 6.13633 0.29564 -23.99869 5.99786 -2.52411 -0.75217 12.8327 8.25464 -9.15851 -20.33008 6.137 4.84243 5.3599
-0.27082 0.56778 -0.31864 190.04193 0 -3.45178 -26.26454 8.70516 2.4591 4.04218 7.49836 3.64526 6.93528 -17.7537 60.62367 85.85844 86.07114 -20.29738 -4.47273 23.98339 31.79002 -10.08422 55.73225 -90.50679 -39.74758 4.54051 10.5034 6.38227 0.03976 -23.50156 5.79719 -2.63084 -1.00159 12.52044 8.51943 -9.3149 -19.56551 5.76551 4.70236 5.18137
-0.27203 0.56824 -0.32151 190.69692 0 -3.43529 -26.31783 9.02773 1.77629 4.89543 7.21057 2.99592 6.1183 -17.11497 60.60504 85.15139 86.28808 -20.04748 -4.56158 27.8985 34.72105 -12.52624 55.60244 -89.65466 -39.93152 4.4388 10.13032 6.6105 -0.27468 -22.97891 5.52894 -2.77017 -1.3051 12.20192 8.75778 -9.4859 -18.73032 5.31827 4.53586 4.97957
-0.27323 0.56868 -0.32445 191.30473 0 -3.41319 -26.37096 9.31108 1.14071 5.68249 6.97305 2.37905 5.35923 -16.55688 60.5915 84.52032 86.45051 -19.77948 -4.63536 31.59229 37.38091 -14.87126 55.44195 -88.85603 -40.0637 4.34599 9.76006 6.83916 -0.58769 -22.45742 5.28877 -2.88988 -1.57407 11.87879 8.99917 -9.62892 -17.90958 4.89338 4.38267 4.79541
-0.27442 0.56906 -0.32752 191.87871 0 -3.40301 -26.43021 9.58795 0.53823 6.54557 6.71821 1.80131 4.50478 -16.00673 60.57483 83.90371 86.62912 -19.56028 -4.71682 34.79871 40.30507 -16.87921 55.686 -88.09513 -40.30946 4.25158 9.4164 7.09861 -0.79891 -21.98014 5.05973 -3.02872 -1.88277 11.58584 9.27921 -9.85775 -17.15982 4.51857 4.22319 4.57803
-0.27564 0.56958 -0.33026 192.55004 0 -3.36955 -26.47558 9.8992 -0.15897 7.27047 6.46883 1.12218 3.83504 -15.39005 60.56201 83.21111 86.80897 -19.24773 -4.79094 39.18199 42.77433 -19.65819 55.05997 -87.23078 -40.33109 4.15662 9.01288 7.29052 -1.2299 -21.40552 4.79205 -3.13622 -2.12403 11.22949 9.47129 -9.91272 -16.24911 4.02323 4.07138 4.42721
-0.27692 0.57046 -0.3322 193.48275 0 -3.27119 -26.49126 10.28815 -1.11235 7.63178 6.31644 0.17058 3.65779 -14.69774 60.5651 82.39114 86.8936 -18.63698 -4.82231 46.75348 43.98883 -24.68378 52.02139 -86.05004 -39.72823 4.0602 8.44467 7.29663 -2.3077 -20.55775 4.42696 -3.14536 -2.14646 10.69486 9.43778 -9.48759 -14.88417 3.19631 3.94047 4.44513
-0.27824 0.57146 -0.33381 194.50535 0 -3.14909 -26.49176 10.70736 -2.15115 7.84154 6.16242 -0.87603 3.67677 -13.93444 60.57141 81.49401 86.98774 -17.94052 -4.84768 55.45685 44.70614 -30.43066 48.12315 -84.78186 -38.89664 3.96473 7.81768 7.23612 -3.59441 -19.61479 4.02664 -3.12274 -2.1029 10.09825 9.31478 -8.8874 -13.36591 2.25408 3.81937 4.53413
-0.27954 0.57239 -0.33554 195.47224 0 -3.03748 -26.49436 11.11028 -3.13563 8.09165 5.97019 -1.8701 3.63019 -13.15848 60.57482 80.60427 87.12879 -17.30692 -4.88699 63.56575 45.57622 -35.70552 44.64808 -83.59867 -38.16484 3.87203 7.22029 7.20875 -4.7502 -18.72208 3.64705 -3.11721 -2.10221 9.53246 9.22552 -8.36513 -11.93444 1.37552 3.69839 4.60542
-0.28081 0.57337 -0.33739 196.50571 0 -2.92752 -26.51737 11.52883 -4.19357 8.46707 5.93673 -2.91047 3.47965 -12.5575 60.58573 79.82107 87.06662 -16.56786 -4.88265 72.05254 46.77633 -41.60365 41.02512 -82.22379 -37.45244 3.76549 6.60985 7.16898 -6.0607 -17.79865 3.24496 -3.10129 -2.04871 8.95275 9.1641 -7.84846 -10.42404 0.44566 3.55762 4.61753
-0.28217 0.57427 -0.33891 197.4207 0 -2.80817 -26.49395 11.91861 -5.11252 8.54274 5.57633 -3.87133 3.59506 -11.58818 60.57971 78.80528 87.41673 -16.03405 -4.96403 79.99422 47.15895 -46.36925 37.51477 -81.22375 -36.64464 3.68782 6.01313 7.13903 -7.09685 -16.91738 2.88253 -3.09942 -2.08921 8.39051 9.0244 -7.28055 -9.04785 -0.40238 3.46015 4.76598
-0.28382 0.57491 -0.33963 197.98262 0 -2.67061 -26.34914 12.24042 -5.66698 7.84036 4.28978 -4.62763 4.38071 -9.52803 60.54484 77.12061 89.00308 -16.03357 -5.31274 86.29285 45.45727 -47.83213 34.47043 -81.33261 -35.63072 3.69382 5.46646 7.1562 -7.33285 -16.17168 2.63582 -3.14041 -2.40158 7.86515 8.68532 -6.59589 -8.03495 -1.00788 3.48497 5.30886
-0.28557 0.57546 -0.34003 198.42261 0 -2.52399 -26.15768 12.52842 -6.07125 6.84006 2.67987 -5.29368 5.42932 -7.11751 60.4894 75.21401 90.98357 -16.25083 -5.74238 91.97212 42.94118 -48.12856 31.58152 -81.81543 -34.52939 3.72848 4.93604 7.18489 -7.28423 -15.4724 2.43085 -3.197 -2.81097 7.36457 8.27163 -5.86939 -7.17115 -1.52467 3.55216 5.97995
-0.28727 0.57604 -0.34057 198.91998 0 -2.38025 -25.98535 12.81883 -6.51627 5.96561 1.23319 -5.97468 6.37023 -4.92801 60.43114 73.43956 92.71895 -16.40643 -6.11562 97.84241 40.75791 -48.95575 28.65673 -82.08988 -33.46536 3.74694 4.39982 7.20607 -7.35924 -14.75496 2.20888 -3.24892 -3.17856 6.86999 7.89565 -5.17335 -6.26887 -2.07394 3.59675 6.56939
-0.28898 0.57666 -0.34111 199.41099 0 -2.24103 -25.82068 13.16434 -7.07724 5.12049 -0.28518 -6.7664 7.27359 -2.47507 60.42428 71.52967 94.73833 -16.40935 -6.57128 104.1426 38.70228 -49.80385 25.54952 -82.51204 -32.39858 3.77745 3.85521 7.23481 -7.46328 -14.02257 1.97798 -3.29019 -3.53542 6.30006 7.50056 -4.42134 -5.2376 -2.6598 3.65594 7.26033
-0.29069 0.57718 -0.34158 199.8867 0 -2.09038 -25.62989 13.38753 -7.36399 4.15266 -1.72742 -7.30818 8.30816 -0.48853 60.30551 69.85085 96.2534 -16.77339 -6.87483 109.37538 36.2098 -50.32414 22.87743 -82.73074 -31.32609 3.79138 3.33227 7.25107 -7.43961 -13.33261 1.77522 -3.35696 -3.93698 5.89414 7.1286 -3.7802 -4.51237 -3.14758 3.69447 7.76898
-0.29234 0.57749 -0.3419 200.33482 0 -1.91212 -25.3726 13.27317 -6.89418 2.85849 -2.91016 -7.15171 9.69878 0.1217 59.88233 68.86082 96.33511 -18.16619 -6.73657 111.88954 32.57486 -50.19996 21.31283 -82.17272 -30.2058 3.73758 2.86944 7.23356 -7.10489 -12.75785 1.64766 -3.49721 -4.45153 5.93185 6.84061 -3.4392 -4.59676 -3.37906 3.66712 7.74583
-0.29398 0.57771 -0.34214 200.77357 0 -1.72259 -25.09201 13.03812 -6.15966 1.46354 -3.99909 -6.75157 11.20023 0.24969 59.34758 68.11284 95.8872 -19.90014 -6.44308 113.33021 28.55641 -49.78627 20.19515 -81.419 -29.09396 3.66866 2.42754 7.20288 -6.65542 -12.22319 1.54589 -3.66144 -5.00537 6.13433 6.57879 -3.21478 -4.98417 -3.51549 3.61722 7.53379
